<svg width="226" height="196" viewBox="0 0 226 196" fill="none" xmlns="http://www.w3.org/2000/svg">
<path d="M190.625 195.234H183C174.578 195.234 167.75 188.099 167.75 179.297C167.75 170.495 174.578 163.359 183 163.359H190.625C199.047 163.359 205.875 170.495 205.875 179.297C205.875 188.099 199.047 195.234 190.625 195.234Z" fill="#3D34D4"/>
<path d="M198.25 163.359H68.625C66.5195 163.359 64.8125 161.575 64.8125 159.375C64.8125 137.405 81.9154 119.531 102.938 119.531H129.625C131.73 119.531 133.437 121.315 133.437 123.516C133.437 125.716 131.73 127.5 129.625 127.5H102.938C87.4111 127.5 74.5568 139.689 72.6748 155.391H198.25C200.355 155.391 202.062 157.175 202.062 159.375C202.062 161.575 200.356 163.359 198.25 163.359Z" fill="#32283C"/>
<path d="M198.25 163.359H22.875C20.7695 163.359 19.0625 161.575 19.0625 159.375C19.0625 137.405 36.1654 119.531 57.1875 119.531H83.875C85.9805 119.531 87.6875 121.315 87.6875 123.516C87.6875 125.716 85.9805 127.5 83.875 127.5H57.1875C41.6611 127.5 28.8068 139.689 26.9248 155.391H198.25C200.355 155.391 202.062 157.175 202.062 159.375C202.062 161.575 200.356 163.359 198.25 163.359Z" fill="#463C4B"/>
<path d="M81.9964 14.6774L87.4816 31.875H95.5188L89.2301 12.1573C87.6703 7.269 83.3098 3.98438 78.3793 3.98438H61V11.9531H78.3793C80.0229 11.9531 81.4765 13.0478 81.9964 14.6774Z" fill="#32283C"/>
<path d="M72.4375 15.9375H61C56.7886 15.9375 53.375 12.37 53.375 7.96875C53.375 3.56751 56.7886 0 61 0H72.4375C76.6489 0 80.0625 3.56751 80.0625 7.96875C80.0625 12.37 76.6489 15.9375 72.4375 15.9375Z" fill="#32283C"/>
<path d="M42.1882 32.014L35.8551 12.1573C34.2953 7.269 29.9348 3.98438 25.0043 3.98438H7.625V11.9531H25.0043C26.6479 11.9531 28.1015 13.0478 28.6214 14.6774L36.1444 38.2644C36.7463 35.179 39.0838 32.6236 42.1882 32.014Z" fill="#463C4B"/>
<path d="M79.5955 42.3639L103.274 116.603C105.35 123.11 111.178 127.5 117.742 127.5H187.259C193.823 127.5 199.65 123.11 201.726 116.602L225.405 42.3634C227.051 37.2031 223.376 31.8745 218.171 31.8745H86.8292C81.6247 31.875 77.9499 37.2036 79.5955 42.3639Z" fill="#3D34D4"/>
<path d="M36.387 42.3639L60.0659 116.603C62.1418 123.11 67.9693 127.5 74.5334 127.5H144.05C150.614 127.5 156.442 123.11 158.518 116.602L182.197 42.3634C183.842 37.2031 180.167 31.8745 174.963 31.8745H43.6207C38.4162 31.875 34.7414 37.2036 36.387 42.3639Z" fill="#4F46E5"/>
<path d="M143.604 71.7188H135.979C133.874 71.7188 132.167 69.9347 132.167 67.7344V51.7969C132.167 49.5965 133.874 47.8125 135.979 47.8125H143.604C145.71 47.8125 147.417 49.5965 147.417 51.7969V67.7344C147.417 69.9347 145.71 71.7188 143.604 71.7188Z" fill="#E6E6EB"/>
<path d="M113.104 71.7188H105.479C103.374 71.7188 101.667 69.9347 101.667 67.7344V51.7969C101.667 49.5965 103.374 47.8125 105.479 47.8125H113.104C115.21 47.8125 116.917 49.5965 116.917 51.7969V67.7344C116.917 69.9347 115.21 71.7188 113.104 71.7188Z" fill="#E6E6EB"/>
<path d="M82.6045 71.7188H74.9795C72.874 71.7188 71.167 69.9347 71.167 67.7344V51.7969C71.167 49.5965 72.874 47.8125 74.9795 47.8125H82.6045C84.7099 47.8125 86.417 49.5965 86.417 51.7969V67.7344C86.417 69.9347 84.7099 71.7188 82.6045 71.7188Z" fill="#E6E6EB"/>
<path d="M143.604 111.562H135.979C133.874 111.562 132.167 109.778 132.167 107.578V91.6406C132.167 89.4403 133.874 87.6562 135.979 87.6562H143.604C145.71 87.6562 147.417 89.4403 147.417 91.6406V107.578C147.417 109.778 145.71 111.562 143.604 111.562Z" fill="#E6E6EB"/>
<path d="M113.104 111.562H105.479C103.374 111.562 101.667 109.778 101.667 107.578V91.6406C101.667 89.4403 103.374 87.6562 105.479 87.6562H113.104C115.21 87.6562 116.917 89.4403 116.917 91.6406V107.578C116.917 109.778 115.21 111.562 113.104 111.562Z" fill="#E6E6EB"/>
<path d="M82.6045 111.562H74.9795C72.874 111.562 71.167 109.778 71.167 107.578V91.6406C71.167 89.4403 72.874 87.6562 74.9795 87.6562H82.6045C84.7099 87.6562 86.417 89.4403 86.417 91.6406V107.578C86.417 109.778 84.7099 111.562 82.6045 111.562Z" fill="#E6E6EB"/>
<path d="M19.0625 15.9375H7.625C3.41362 15.9375 0 12.37 0 7.96875C0 3.56751 3.41362 0 7.625 0H19.0625C23.2739 0 26.6875 3.56751 26.6875 7.96875C26.6875 12.37 23.2739 15.9375 19.0625 15.9375Z" fill="#4F46E5"/>
<path d="M183 195.234C191.422 195.234 198.25 188.099 198.25 179.297C198.25 170.495 191.422 163.359 183 163.359C174.578 163.359 167.75 170.495 167.75 179.297C167.75 188.099 174.578 195.234 183 195.234Z" fill="#4F46E5"/>
<path d="M183 187.266C187.211 187.266 190.625 183.698 190.625 179.297C190.625 174.896 187.211 171.328 183 171.328C178.789 171.328 175.375 174.896 175.375 179.297C175.375 183.698 178.789 187.266 183 187.266Z" fill="#E6E6EB"/>
<path d="M41.9375 195.234H34.3125C25.8902 195.234 19.0625 188.099 19.0625 179.297C19.0625 170.495 25.8902 163.359 34.3125 163.359H41.9375C50.3598 163.359 57.1875 170.495 57.1875 179.297C57.1875 188.099 50.3598 195.234 41.9375 195.234Z" fill="#3D34D4"/>
<path d="M34.3125 195.234C42.7348 195.234 49.5625 188.099 49.5625 179.297C49.5625 170.495 42.7348 163.359 34.3125 163.359C25.8902 163.359 19.0625 170.495 19.0625 179.297C19.0625 188.099 25.8902 195.234 34.3125 195.234Z" fill="#4F46E5"/>
<path d="M34.3125 187.266C38.5237 187.266 41.9375 183.698 41.9375 179.297C41.9375 174.896 38.5237 171.328 34.3125 171.328C30.1013 171.328 26.6875 174.896 26.6875 179.297C26.6875 183.698 30.1013 187.266 34.3125 187.266Z" fill="#E6E6EB"/>
</svg>
